<svg width="114" height="86" viewBox="0 0 114 86" fill="none" xmlns="http://www.w3.org/2000/svg">
<path d="M107.316 0.0104248C96.4702 0.607431 74.9128 2.78046 61.6046 10.6817C60.6863 11.2268 60.1657 12.1963 60.1657 13.2098V83.0595C60.1657 85.2767 62.6655 86.678 64.7733 85.6491C78.4654 78.965 98.2673 77.1413 108.058 76.6422C111.401 76.4713 114 73.8722 114 70.7566V5.9037C114.002 2.50403 110.962 -0.189217 107.316 0.0104248ZM52.3954 10.6817C39.0892 2.78046 17.5318 0.60935 6.68574 0.0104248C3.04005 -0.189217 0 2.50403 0 5.9037V70.7585C0 73.876 2.59869 76.4752 5.94156 76.6441C15.7366 77.1432 35.5484 78.9688 49.2405 85.6568C51.3425 86.6838 53.8343 85.2844 53.8343 83.073V13.1753C53.8343 12.1598 53.3157 11.2288 52.3954 10.6817Z" fill="white"/>
</svg>
