<svg width="25" height="22" viewBox="0 0 25 22" fill="none" xmlns="http://www.w3.org/2000/svg">
<path d="M24.2188 17.1875H7.8125V16.4062C7.8125 15.9766 7.46094 15.625 7.03125 15.625H5.46875C5.03906 15.625 4.6875 15.9766 4.6875 16.4062V17.1875H0.78125C0.351562 17.1875 0 17.5391 0 17.9688V19.5312C0 19.9609 0.351562 20.3125 0.78125 20.3125H4.6875V21.0938C4.6875 21.5234 5.03906 21.875 5.46875 21.875H7.03125C7.46094 21.875 7.8125 21.5234 7.8125 21.0938V20.3125H24.2188C24.6484 20.3125 25 19.9609 25 19.5312V17.9688C25 17.5391 24.6484 17.1875 24.2188 17.1875ZM24.2188 9.375H20.3125V8.59375C20.3125 8.16406 19.9609 7.8125 19.5312 7.8125H17.9688C17.5391 7.8125 17.1875 8.16406 17.1875 8.59375V9.375H0.78125C0.351562 9.375 0 9.72656 0 10.1562V11.7188C0 12.1484 0.351562 12.5 0.78125 12.5H17.1875V13.2812C17.1875 13.7109 17.5391 14.0625 17.9688 14.0625H19.5312C19.9609 14.0625 20.3125 13.7109 20.3125 13.2812V12.5H24.2188C24.6484 12.5 25 12.1484 25 11.7188V10.1562C25 9.72656 24.6484 9.375 24.2188 9.375ZM24.2188 1.5625H14.0625V0.78125C14.0625 0.351562 13.7109 0 13.2812 0H11.7188C11.2891 0 10.9375 0.351562 10.9375 0.78125V1.5625H0.78125C0.351562 1.5625 0 1.91406 0 2.34375V3.90625C0 4.33594 0.351562 4.6875 0.78125 4.6875H10.9375V5.46875C10.9375 5.89844 11.2891 6.25 11.7188 6.25H13.2812C13.7109 6.25 14.0625 5.89844 14.0625 5.46875V4.6875H24.2188C24.6484 4.6875 25 4.33594 25 3.90625V2.34375C25 1.91406 24.6484 1.5625 24.2188 1.5625Z" fill="#EBEBEB"/>
</svg>
