<svg width="50" height="39" viewBox="0 0 50 39" fill="none" xmlns="http://www.w3.org/2000/svg">
<path d="M42.5112 5.66719C37.8348 2.01094 31.6071 0 24.9888 0C11.3281 0 0.212054 8.67054 0.212054 19.3259C0.212054 22.7297 1.35045 26.0551 3.51562 28.9888L0 39L13.1362 36.31C16.7522 37.8509 20.8259 38.6605 24.9777 38.6605H24.9888C38.6384 38.6605 50 29.99 50 19.3346C50 14.1723 47.1875 9.32344 42.5112 5.66719ZM24.9888 35.4047C21.2835 35.4047 17.6562 34.6299 14.4978 33.1674L13.75 32.8192L5.95982 34.4123L8.03571 28.4839L7.54464 27.8746C5.47991 25.3152 4.39732 22.3641 4.39732 19.3259C4.39732 10.4725 13.6384 3.26451 25 3.26451C30.5022 3.26451 35.6696 4.93594 39.5536 7.97411C43.4375 11.0123 45.8259 15.0429 45.8147 19.3346C45.8147 28.1967 36.3393 35.4047 24.9888 35.4047ZM36.2835 23.3739C35.6696 23.1301 32.6228 21.9636 32.0536 21.8069C31.4844 21.6415 31.0714 21.5632 30.6585 22.0507C30.2455 22.5382 29.0625 23.6176 28.6942 23.9484C28.3371 24.2705 27.9688 24.3141 27.3549 24.0703C23.7165 22.6513 21.3281 21.5371 18.9286 18.3248C18.2924 17.4717 19.5647 17.5326 20.7478 15.6871C20.9487 15.365 20.8482 15.0864 20.692 14.8426C20.5357 14.5989 19.2969 12.2223 18.7835 11.256C18.2812 10.3158 17.7679 10.4464 17.3884 10.429C17.0312 10.4116 16.6183 10.4116 16.2054 10.4116C15.7924 10.4116 15.1228 10.5335 14.5536 11.0123C13.9844 11.4998 12.3884 12.6663 12.3884 15.0429C12.3884 17.4194 14.6094 19.7176 14.9107 20.0397C15.2232 20.3618 19.2746 25.2368 25.4911 27.3348C29.4196 28.658 30.9598 28.7712 32.9241 28.5449C34.1183 28.4056 36.5848 27.3783 37.0982 26.2467C37.6116 25.115 37.6116 24.1487 37.4554 23.9484C37.3103 23.7308 36.8973 23.6089 36.2835 23.3739Z" fill="white"/>
</svg>
