<svg width="114" height="81" viewBox="0 0 114 81" fill="none" xmlns="http://www.w3.org/2000/svg">
<path d="M48.0938 0H65.9062C68.8676 0 71.25 1.69277 71.25 3.79688V30.375H90.777C94.7402 30.375 96.7219 33.7764 93.9164 35.7697L60.0504 59.8482C58.3805 61.0348 55.6418 61.0348 53.9719 59.8482L20.0613 35.7697C17.2559 33.7764 19.2375 30.375 23.2008 30.375H42.75V3.79688C42.75 1.69277 45.1324 0 48.0938 0ZM114 59.4844V77.2031C114 79.3072 111.618 81 108.656 81H5.34375C2.38242 81 0 79.3072 0 77.2031V59.4844C0 57.3803 2.38242 55.6875 5.34375 55.6875H38.0074L48.9176 63.4395C53.393 66.6193 60.607 66.6193 65.0824 63.4395L75.9926 55.6875H108.656C111.618 55.6875 114 57.3803 114 59.4844ZM86.3906 73.4062C86.3906 71.666 84.3867 70.2422 81.9375 70.2422C79.4883 70.2422 77.4844 71.666 77.4844 73.4062C77.4844 75.1465 79.4883 76.5703 81.9375 76.5703C84.3867 76.5703 86.3906 75.1465 86.3906 73.4062ZM100.641 73.4062C100.641 71.666 98.6367 70.2422 96.1875 70.2422C93.7383 70.2422 91.7344 71.666 91.7344 73.4062C91.7344 75.1465 93.7383 76.5703 96.1875 76.5703C98.6367 76.5703 100.641 75.1465 100.641 73.4062Z" fill="white"/>
</svg>
