<svg width="26" height="20" viewBox="0 0 26 20" fill="none" xmlns="http://www.w3.org/2000/svg">
<path d="M24.2153 0.184982C21.7801 0.303519 16.9383 0.767359 13.937 2.57148C13.7299 2.69597 13.6113 2.91933 13.6094 3.15385L13.4793 19.3156C13.4751 19.8286 14.0335 20.1573 14.5085 19.9231C17.5936 18.4012 22.0409 18.0151 24.2391 17.9173C24.9896 17.8838 25.5776 17.2871 25.5834 16.5662L25.7042 1.56064C25.711 0.774029 25.0338 0.145376 24.2153 0.184982ZM11.8703 2.55484C8.89894 0.70263 4.06517 0.161331 1.63228 0.00315545C0.814506 -0.0496247 0.127256 0.568042 0.120922 1.35465L0.000101407 16.3607C-0.00570628 17.082 0.572637 17.6881 1.32251 17.7332C3.51974 17.8664 7.9624 18.3246 11.0227 19.8968C11.4924 20.1382 12.0543 19.8189 12.0584 19.3072L12.1886 3.13441C12.1905 2.89945 12.0758 2.68309 11.8703 2.55484Z" fill="white" fill-opacity="0.53"/>
</svg>
