<svg width="116" height="88" viewBox="0 0 116 88" fill="none" xmlns="http://www.w3.org/2000/svg">
<path d="M56.4621 22.8295L19.3349 52.6605V84.8568C19.3349 85.6904 19.6743 86.4899 20.2786 87.0794C20.8828 87.6688 21.7023 88 22.5568 88L45.1227 87.943C45.9745 87.9389 46.7898 87.6059 47.3906 87.0169C47.9914 86.4278 48.3286 85.6307 48.3286 84.7998V65.9975C48.3286 65.1639 48.6681 64.3644 49.2723 63.775C49.8765 63.1855 50.6961 62.8543 51.5506 62.8543H64.4385C65.293 62.8543 66.1125 63.1855 66.7167 63.775C67.321 64.3644 67.6604 65.1639 67.6604 65.9975V84.7861C67.6591 85.1997 67.7415 85.6095 67.9028 85.9919C68.0641 86.3744 68.3013 86.7221 68.6006 87.015C68.8999 87.3079 69.2555 87.5403 69.6471 87.6989C70.0387 87.8575 70.4585 87.9391 70.8824 87.9391L93.4403 88C94.2948 88 95.1143 87.6688 95.7185 87.0794C96.3228 86.4899 96.6622 85.6904 96.6622 84.8568V52.6389L59.5431 22.8295C59.1067 22.4864 58.5631 22.2992 58.0026 22.2992C57.4421 22.2992 56.8985 22.4864 56.4621 22.8295ZM115.108 43.1052L98.2732 29.5678V2.35741C98.2732 1.73218 98.0186 1.13257 97.5655 0.690469C97.1123 0.248369 96.4976 0 95.8567 0H84.5798C83.9389 0 83.3243 0.248369 82.8711 0.690469C82.4179 1.13257 82.1634 1.73218 82.1634 2.35741V16.6217L64.1344 2.15113C62.4042 0.762187 60.2332 0.00277652 57.9925 0.00277652C55.7518 0.00277652 53.5808 0.762187 51.8506 2.15113L0.876978 43.1052C0.632285 43.3025 0.429839 43.5449 0.28121 43.8185C0.13258 44.0922 0.040679 44.3917 0.0107577 44.7001C-0.0191636 45.0084 0.0134813 45.3194 0.106827 45.6154C0.200173 45.9114 0.35239 46.1866 0.554781 46.4252L5.6898 52.5151C5.89164 52.7546 6.13991 52.9528 6.42038 53.0985C6.70086 53.2442 7.00803 53.3345 7.32433 53.3643C7.64063 53.394 7.95984 53.3626 8.26368 53.2719C8.56752 53.1811 8.85002 53.0328 9.09503 52.8354L56.4621 14.775C56.8985 14.4319 57.4421 14.2448 58.0026 14.2448C58.5631 14.2448 59.1067 14.4319 59.5431 14.775L106.912 52.8354C107.157 53.0328 107.439 53.1813 107.742 53.2724C108.046 53.3634 108.364 53.3953 108.681 53.3661C108.997 53.3369 109.304 53.2472 109.584 53.1022C109.865 52.9572 110.113 52.7598 110.315 52.521L115.45 46.4311C115.653 46.1911 115.804 45.9145 115.896 45.6172C115.989 45.3199 116.02 45.0078 115.988 44.6987C115.956 44.3896 115.862 44.0897 115.711 43.8163C115.56 43.5428 115.355 43.3011 115.108 43.1052Z" fill="white"/>
</svg>
