<svg width="33" height="42" viewBox="0 0 33 42" fill="none" xmlns="http://www.w3.org/2000/svg">
<path d="M16.5 34.125C23.9057 34.125 29.9062 26.4879 29.9062 17.0625C29.9062 7.63711 23.9057 0 16.5 0C9.09434 0 3.09375 7.63711 3.09375 17.0625C3.09375 26.4879 9.09434 34.125 16.5 34.125ZM15.0691 7.98984V6.61172C15.0691 5.85703 15.5461 5.25 16.1391 5.25H16.8545C17.4475 5.25 17.9244 5.85703 17.9244 6.61172V8.00625C18.9234 8.07187 19.8902 8.50664 20.6959 9.26953C21.0568 9.60586 21.0955 10.2785 20.7732 10.6723L19.7227 11.9438C19.4777 12.2473 19.1104 12.2555 18.8203 12.0258C18.4723 11.7469 18.0855 11.6074 17.673 11.6074H15.1658C14.5857 11.6074 14.1152 12.2801 14.1152 13.1086C14.1152 13.7812 14.4375 14.3801 14.8951 14.5523L18.9105 16.0863C20.567 16.718 21.7271 18.7441 21.7271 21.0164C21.7271 23.8055 20.0256 26.0613 17.918 26.1352V27.5133C17.918 28.268 17.441 28.875 16.848 28.875H16.1326C15.5396 28.875 15.0627 28.268 15.0627 27.5133V26.1187C14.0637 26.0531 13.0969 25.6184 12.2912 24.8555C11.9303 24.5191 11.8916 23.8465 12.2139 23.4527L13.2645 22.1812C13.5094 21.8777 13.8768 21.8695 14.1668 22.0992C14.5148 22.3781 14.9016 22.5176 15.3141 22.5176H17.8213C18.4014 22.5176 18.8719 21.8449 18.8719 21.0164C18.8719 20.3438 18.5496 19.7449 18.092 19.5727L14.0766 18.0387C12.4201 17.407 11.26 15.3809 11.26 13.1086C11.2664 10.3195 12.9615 8.06367 15.0691 7.98984ZM30.9375 28.875H28.8428C27.5795 31.0078 25.9682 32.7879 24.1377 34.125H28.2498C28.5914 34.125 28.8686 34.4203 28.8686 34.7812V36.0938C28.8686 36.4547 28.5914 36.75 28.2498 36.75H4.74375C4.40215 36.75 4.125 36.4547 4.125 36.0938V34.7812C4.125 34.4203 4.40215 34.125 4.74375 34.125H8.85586C7.02539 32.7879 5.42051 31.0078 4.15078 28.875H2.0625C0.92168 28.875 0 30.048 0 31.5V39.375C0 40.827 0.92168 42 2.0625 42H30.9375C32.0783 42 33 40.827 33 39.375V31.5C33 30.048 32.0783 28.875 30.9375 28.875Z" fill="white"/>
</svg>
