<svg width="40" height="50" viewBox="0 0 40 50" fill="none" xmlns="http://www.w3.org/2000/svg">
<path d="M5.71429 21.875H6.91964C9.125 27.3926 14.1429 31.25 20 31.25C25.8571 31.25 30.875 27.3926 33.0804 21.875H34.2857C35.0714 21.875 35.7143 21.1719 35.7143 20.3125V10.9375C35.7143 10.0781 35.0714 9.375 34.2857 9.375H33.0804C30.875 3.85742 25.8571 0 20 0C14.1429 0 9.125 3.85742 6.91964 9.375H5.71429C4.92857 9.375 4.28571 10.0781 4.28571 10.9375V20.3125C4.28571 21.1719 4.92857 21.875 5.71429 21.875ZM9.28571 13.2812C9.28571 11.123 11.2054 9.375 13.5714 9.375H26.4286C28.7946 9.375 30.7143 11.123 30.7143 13.2812V15.625C30.7143 20.8008 26.875 25 22.1429 25H17.8571C13.125 25 9.28571 20.8008 9.28571 15.625V13.2812ZM15.7143 20.3125L16.7857 16.7969L20 15.625L16.7857 14.4531L15.7143 10.9375L14.6429 14.4531L11.4286 15.625L14.6429 16.7969L15.7143 20.3125ZM29.25 31.3867C26.5804 33.2715 23.4107 34.375 20 34.375C16.5893 34.375 13.4196 33.2715 10.75 31.3867C4.72321 32.0801 0 37.5977 0 44.375V45.3125C0 47.9004 1.91964 50 4.28571 50H11.4286V43.75C11.4286 42.0215 12.7054 40.625 14.2857 40.625H25.7143C27.2946 40.625 28.5714 42.0215 28.5714 43.75V50H35.7143C38.0804 50 40 47.9004 40 45.3125V44.375C40 37.5977 35.2768 32.0801 29.25 31.3867ZM24.2857 43.75C23.5 43.75 22.8571 44.4531 22.8571 45.3125C22.8571 46.1719 23.5 46.875 24.2857 46.875C25.0714 46.875 25.7143 46.1719 25.7143 45.3125C25.7143 44.4531 25.0714 43.75 24.2857 43.75ZM15.7143 43.75C14.9286 43.75 14.2857 44.4531 14.2857 45.3125V50H17.1429V45.3125C17.1429 44.4531 16.5 43.75 15.7143 43.75Z" fill="#FAFAFA"/>
</svg>
