<svg width="25" height="26" viewBox="0 0 25 26" fill="none" xmlns="http://www.w3.org/2000/svg">
<path d="M18.1171 16.4432L18.148 16.4038C19.4942 14.6845 20.2949 12.5215 20.2966 10.1677C20.3006 4.56848 15.7669 0.028388 10.1677 0.0244198C4.56848 0.0204517 0.0283969 4.55411 0.0244288 10.1533C0.0204606 15.7525 4.55412 20.2926 10.1533 20.2966C12.5071 20.2983 14.6713 19.5006 16.3924 18.1569L16.4319 18.126L16.4319 18.1761L16.4313 18.9724C16.4311 19.2786 16.5505 19.5704 16.7655 19.7858L21.6323 24.6594C22.0817 25.1094 22.8086 25.1098 23.2536 24.6607L23.2537 24.6606L24.6371 23.2791C25.0871 22.8298 25.0876 22.1028 24.6432 21.6528L18.1171 16.4432ZM18.1171 16.4432L18.1672 16.4432L18.9635 16.4438C19.2697 16.444 19.5614 16.5638 19.7764 16.7792L24.6431 21.6527L18.1171 16.4432ZM3.88347 10.1561C3.88101 13.628 6.689 16.4351 10.1561 16.4376C13.6281 16.44 16.4351 13.632 16.4376 10.165C16.44 6.69297 13.632 3.88592 10.165 3.88346C6.69298 3.881 3.88593 6.68899 3.88347 10.1561Z" fill="#EBEBEB" stroke="white" stroke-width="0.0488281"/>
</svg>
