<svg width="25" height="42" viewBox="0 0 25 42" fill="none" xmlns="http://www.w3.org/2000/svg">
<path d="M21.875 5.25H16.6667C16.6667 2.3543 14.7982 0 12.5 0C10.2018 0 8.33333 2.3543 8.33333 5.25H3.125C1.39974 5.25 0 7.01367 0 9.1875V38.0625C0 40.2363 1.39974 42 3.125 42H21.875C23.6003 42 25 40.2363 25 38.0625V9.1875C25 7.01367 23.6003 5.25 21.875 5.25ZM12.5 3.28125C13.3659 3.28125 14.0625 4.15898 14.0625 5.25C14.0625 6.34102 13.3659 7.21875 12.5 7.21875C11.6341 7.21875 10.9375 6.34102 10.9375 5.25C10.9375 4.15898 11.6341 3.28125 12.5 3.28125ZM18.75 28.2188C18.75 28.5797 18.5156 28.875 18.2292 28.875H14.5833V33.4688C14.5833 33.8297 14.349 34.125 14.0625 34.125H10.9375C10.651 34.125 10.4167 33.8297 10.4167 33.4688V28.875H6.77083C6.48437 28.875 6.25 28.5797 6.25 28.2188V24.2812C6.25 23.9203 6.48437 23.625 6.77083 23.625H10.4167V19.0312C10.4167 18.6703 10.651 18.375 10.9375 18.375H14.0625C14.349 18.375 14.5833 18.6703 14.5833 19.0312V23.625H18.2292C18.5156 23.625 18.75 23.9203 18.75 24.2812V28.2188ZM18.75 12.4688C18.75 12.8297 18.5156 13.125 18.2292 13.125H6.77083C6.48437 13.125 6.25 12.8297 6.25 12.4688V11.1562C6.25 10.7953 6.48437 10.5 6.77083 10.5H18.2292C18.5156 10.5 18.75 10.7953 18.75 11.1562V12.4688Z" fill="white"/>
</svg>
