<svg width="42" height="48" viewBox="0 0 42 48" fill="none" xmlns="http://www.w3.org/2000/svg">
<path d="M40.4761 42.5067L40.4781 42.5143L40.4841 42.5193C40.9765 42.9274 41.2954 43.558 41.2949 44.2532L41.2939 45.7526C41.293 46.9857 40.316 47.9763 39.1032 47.9754L8.84867 47.954C3.97394 47.9505 0.0211517 43.9296 0.0246621 38.9763L0.0459134 8.98972C0.0494238 4.03641 4.00791 0.0211526 8.88264 0.0246073L39.1371 0.0460485C40.3499 0.046908 41.3256 1.03889 41.3247 2.27199L41.3024 33.7579C41.3019 34.4532 40.982 35.0832 40.4893 35.4812L40.4831 35.4862L40.4811 35.4939C40.2859 36.2188 40.1882 37.6108 40.1872 39.0001C40.1862 40.3894 40.282 41.7816 40.4761 42.5067ZM35.178 42.0245L35.2054 42.0245L35.2025 41.9972C35.0285 40.3965 35.0305 37.6058 35.2067 36.0053L35.2097 35.978L35.1823 35.978L8.85717 35.9593C7.2198 35.9582 5.87994 37.318 5.87876 38.9805C5.87758 40.6523 7.20629 42.0047 8.85288 42.0058L35.178 42.0245ZM12.3793 11.9725C12.0609 11.9723 11.801 12.2365 11.8008 12.559L11.7995 14.4331C11.7992 14.7556 12.0588 15.0202 12.3771 15.0204L31.9318 15.0342C32.2502 15.0345 32.5101 14.7703 32.5103 14.4478L32.5116 12.5736C32.5118 12.2512 32.2523 11.9866 31.934 11.9864L12.3793 11.9725ZM12.375 17.9698C12.0567 17.9696 11.7968 18.2338 11.7966 18.5563L11.7952 20.4304C11.795 20.7529 12.0545 21.0175 12.3729 21.0177L31.9276 21.0316C32.2459 21.0318 32.5058 20.7676 32.506 20.4451L32.5074 18.571C32.5076 18.2485 32.2481 17.9839 31.9297 17.9837L12.375 17.9698Z" fill="#7DA7F7" stroke="white" stroke-width="0.0488281"/>
</svg>
