<svg width="26" height="22" viewBox="0 0 26 22" fill="none" xmlns="http://www.w3.org/2000/svg">
<path d="M7.83539 17.2855L7.83537 17.3101L7.85993 17.3101L24.3624 17.3218C24.7811 17.3221 25.1234 17.665 25.1231 18.0836L25.122 19.6553C25.1217 20.0739 24.7789 20.4163 24.3602 20.416L7.85774 20.4043L7.83318 20.4043L7.83316 20.4288L7.83261 21.2147C7.83231 21.6333 7.48944 21.9757 7.07079 21.9754L5.49913 21.9743C5.08048 21.974 4.73809 21.6311 4.73839 21.2125L4.73895 20.4267L4.73896 20.4021L4.71441 20.4021L0.785245 20.3993C0.3666 20.399 0.0242125 20.0561 0.0245092 19.6375L0.0256231 18.0658C0.0259198 17.6472 0.368793 17.3048 0.787438 17.3051L4.7166 17.3079L4.74116 17.3079L4.74117 17.2833L4.74173 16.4975C4.74203 16.0788 5.0849 15.7365 5.50355 15.7368L7.07521 15.7379C7.49386 15.7382 7.83624 16.081 7.83595 16.4997L7.83539 17.2855ZM20.4143 9.4361L20.4143 9.46066L20.4388 9.46068L24.368 9.46346C24.7866 9.46376 25.129 9.80663 25.1287 10.2253L25.1276 11.7969C25.1273 12.2156 24.7844 12.558 24.3658 12.5577L20.4366 12.5549L20.4121 12.5549L20.4121 12.5794L20.4115 13.3653C20.4112 13.7839 20.0683 14.1263 19.6497 14.126L18.078 14.1249C17.6594 14.1246 17.317 13.7817 17.3173 13.3631L17.3178 12.5772L17.3179 12.5527L17.2933 12.5527L0.790814 12.541C0.372169 12.5407 0.0297817 12.1978 0.0300784 11.7792L0.0311922 10.2075C0.0314889 9.78884 0.374362 9.44646 0.793007 9.44675L17.2955 9.45845L17.32 9.45847L17.3201 9.43391L17.3206 8.64808C17.3209 8.22943 17.6638 7.88705 18.0824 7.88734L19.6541 7.88846C20.0727 7.88875 20.4151 8.23162 20.4148 8.65027L20.4143 9.4361ZM14.1332 1.57332L14.1332 1.59788L14.1577 1.5979L24.3736 1.60514C24.7922 1.60543 25.1346 1.94831 25.1343 2.36695L25.1332 3.93862C25.1329 4.35726 24.79 4.69965 24.3714 4.69935L14.1555 4.69211L14.131 4.6921L14.131 4.71665L14.1304 5.50249C14.1301 5.92113 13.7872 6.26352 13.3686 6.26322L11.7969 6.26211C11.3783 6.26181 11.0359 5.91894 11.0362 5.50029L11.0367 4.71446L11.0368 4.6899L11.0122 4.68989L0.796383 4.68265C0.377738 4.68235 0.0353509 4.33948 0.0356475 3.92083L0.0367614 2.34917C0.0370581 1.93052 0.379931 1.58813 0.798576 1.58843L11.0144 1.59567L11.039 1.59569L11.039 1.57113L11.0395 0.785297C11.0398 0.366652 11.3827 0.0242648 11.8013 0.0245615L13.373 0.0256754C13.7917 0.025972 14.134 0.368845 14.1337 0.78749L14.1332 1.57332Z" fill="#EBEBEB" stroke="white" stroke-width="0.0488281"/>
</svg>
