<svg width="42" height="43" viewBox="0 0 42 43" fill="none" xmlns="http://www.w3.org/2000/svg">
<path d="M33 26.875C30.8805 26.875 28.9325 27.5317 27.3947 28.6299L17.7866 23.2503C18.0712 22.0973 18.0712 20.9026 17.7866 19.7496L27.3947 14.3701C28.9325 15.4683 30.8805 16.125 33 16.125C37.9705 16.125 42 12.5153 42 8.0625C42 3.60973 37.9705 0 33 0C28.0295 0 24 3.60973 24 8.0625C24 8.66366 24.0741 9.2492 24.2134 9.81282L14.6053 15.1924C13.0675 14.0942 11.1195 13.4375 9 13.4375C4.02947 13.4375 0 17.0472 0 21.5C0 25.9528 4.02947 29.5625 9 29.5625C11.1195 29.5625 13.0675 28.9058 14.6053 27.8076L24.2134 33.1872C24.0714 33.7619 23.9998 34.3488 24 34.9375C24 39.3903 28.0295 43 33 43C37.9705 43 42 39.3903 42 34.9375C42 30.4847 37.9705 26.875 33 26.875Z" fill="#FFFEFE"/>
</svg>
