<svg width="41" height="46" viewBox="0 0 41 46" fill="none" xmlns="http://www.w3.org/2000/svg">
<path d="M19.9564 11.9336L6.83387 27.5271V44.357C6.83387 44.7927 6.95385 45.2106 7.16742 45.5188C7.38099 45.8269 7.67065 46 7.97267 46L15.9486 45.9702C16.2496 45.968 16.5378 45.794 16.7501 45.4861C16.9625 45.1782 17.0817 44.7615 17.0817 44.3272V34.4987C17.0817 34.063 17.2016 33.645 17.4152 33.3369C17.6288 33.0288 17.9184 32.8557 18.2205 32.8557H22.7757C23.0777 32.8557 23.3674 33.0288 23.5809 33.3369C23.7945 33.645 23.9145 34.063 23.9145 34.4987V44.32C23.914 44.5362 23.9431 44.7504 24.0001 44.9503C24.0571 45.1503 24.141 45.332 24.2468 45.4851C24.3526 45.6382 24.4782 45.7597 24.6166 45.8426C24.755 45.9255 24.9034 45.9682 25.0533 45.9682L33.0263 46C33.3283 46 33.618 45.8269 33.8316 45.5188C34.0451 45.2106 34.1651 44.7927 34.1651 44.357V27.5158L21.0454 11.9336C20.8912 11.7542 20.699 11.6564 20.5009 11.6564C20.3028 11.6564 20.1107 11.7542 19.9564 11.9336ZM40.6847 22.5322L34.7345 15.4559V1.23228C34.7345 0.905459 34.6445 0.592024 34.4843 0.360927C34.3242 0.129829 34.1069 0 33.8804 0H29.8946C29.6681 0 29.4508 0.129829 29.2907 0.360927C29.1305 0.592024 29.0405 0.905459 29.0405 1.23228V8.6886L22.6682 1.12446C22.0567 0.398416 21.2893 0.00145136 20.4974 0.00145136C19.7054 0.00145136 18.938 0.398416 18.3265 1.12446L0.309967 22.5322C0.22348 22.6354 0.151926 22.7621 0.0993931 22.9051C0.0468602 23.0482 0.0143779 23.2048 0.00380228 23.3659C-0.00677334 23.5271 0.00476493 23.6897 0.0377578 23.8444C0.0707507 23.9992 0.124552 24.143 0.196086 24.2677L2.01105 27.4511C2.08239 27.5763 2.17014 27.6799 2.26927 27.756C2.36841 27.8322 2.47698 27.8794 2.58877 27.895C2.70057 27.9105 2.81339 27.8941 2.92078 27.8467C3.02817 27.7992 3.12803 27.7217 3.21462 27.6185L19.9564 7.72332C20.1107 7.54394 20.3028 7.44613 20.5009 7.44613C20.699 7.44613 20.8912 7.54394 21.0454 7.72332L37.7879 27.6185C37.8744 27.7217 37.9741 27.7993 38.0813 27.8469C38.1885 27.8945 38.3012 27.9112 38.4129 27.8959C38.5246 27.8806 38.6332 27.8338 38.7323 27.758C38.8315 27.6822 38.9193 27.579 38.9908 27.4542L40.8057 24.2708C40.8772 24.1453 40.9308 24.0008 40.9634 23.8454C40.996 23.69 41.007 23.5268 40.9957 23.3652C40.9845 23.2037 40.9512 23.0469 40.8979 22.904C40.8445 22.761 40.7721 22.6347 40.6847 22.5322Z" fill="#7DA7F7"/>
</svg>
