<svg width="41" height="46" viewBox="0 0 41 46" fill="none" xmlns="http://www.w3.org/2000/svg">
<path d="M40.6689 22.373L40.6688 22.3729L34.7236 15.3508L34.7184 15.3447L34.7184 15.3368L34.7284 1.23073C34.7286 0.910326 34.6398 0.603932 34.4828 0.378833C34.3257 0.153807 34.1146 0.0298982 33.8969 0.0297439L29.9111 0.0269192C29.6933 0.0267649 29.482 0.150375 29.3247 0.375178C29.1673 0.600053 29.078 0.906321 29.0778 1.22672L29.0726 8.62142L29.0725 8.68049L29.0343 8.63544L22.6673 1.1293C22.0596 0.412648 21.2982 0.0222547 20.5138 0.0216988C19.7295 0.0211429 18.9675 0.410457 18.3587 1.12624L0.327171 22.3443L40.6689 22.373ZM40.6689 22.373C40.7543 22.4725 40.8254 22.5956 40.8779 22.7353C40.9304 22.875 40.9631 23.0284 40.9741 23.1867C40.9851 23.345 40.9741 23.5048 40.9419 23.6568C40.9096 23.8089 40.8566 23.9501 40.7863 24.0723L38.9692 27.2281C38.9692 27.2281 38.9692 27.2281 38.9691 27.2281C38.8988 27.3497 38.8128 27.4497 38.7162 27.5228C38.6196 27.5958 38.5145 27.6406 38.4069 27.6551C38.2993 27.6696 38.1907 27.6537 38.087 27.6079C37.9832 27.5622 37.8861 27.4873 37.8016 27.387L37.8015 27.387L21.073 7.6444L21.0729 7.64423C20.9155 7.46246 20.7178 7.36159 20.5122 7.36145C20.3066 7.3613 20.1087 7.46188 19.9511 7.64343L19.9509 7.64361L3.19515 27.3625L3.19513 27.3625C3.1103 27.4626 3.01298 27.5373 2.90899 27.5827C2.80509 27.6282 2.69629 27.6437 2.58863 27.6288C2.48092 27.6139 2.37583 27.5686 2.27941 27.495C2.18294 27.4214 2.09709 27.3209 2.02706 27.1989L2.0085 27.2095L2.02706 27.1989L0.214331 24.0405L0.214303 24.0405M40.6689 22.373L0.214303 24.0405M0.214303 24.0405C0.144095 23.9189 0.0911542 23.7783 0.0586983 23.6269C0.0262446 23.4754 0.014955 23.3162 0.0255123 23.1583C0.0360699 23.0004 0.0682553 22.8472 0.120119 22.7075C0.171984 22.5677 0.242422 22.4444 0.327146 22.3443L0.214303 24.0405ZM25.0375 45.5683L25.0375 45.5683C24.8918 45.5682 24.7472 45.527 24.612 45.4466C24.4767 45.3661 24.3533 45.2478 24.2491 45.098C24.1449 44.9483 24.0622 44.7702 24.0059 44.5739C23.9496 44.3776 23.9209 44.1672 23.9215 43.9547L23.9284 34.2146C23.9287 33.7787 23.808 33.3597 23.5918 33.0497C23.3754 32.7397 23.0799 32.5628 22.7691 32.5626L18.2139 32.5594C17.9031 32.5592 17.6072 32.7356 17.3905 33.0453C17.1738 33.3549 17.0525 33.7738 17.0522 34.2097L17.0453 43.9569C17.045 44.384 16.9265 44.7926 16.7168 45.0937C16.5072 45.3946 16.2249 45.562 15.9326 45.5639L7.95684 45.5878C7.95681 45.5878 7.95678 45.5878 7.95676 45.5878C7.66353 45.5876 7.38005 45.4207 7.1697 45.1193C6.95929 44.8177 6.84057 44.4077 6.84088 43.9793L6.8527 27.2964L19.9809 11.8474C19.9809 11.8474 19.981 11.8473 19.981 11.8473C20.1321 11.6733 20.3186 11.5802 20.5092 11.5803C20.6997 11.5805 20.8861 11.6738 21.0369 11.848C21.037 11.848 21.037 11.8481 21.0371 11.8481L34.1405 27.3046L34.1287 43.9986C34.1284 44.427 34.0091 44.8369 33.7983 45.1381C33.5875 45.4393 33.3038 45.6057 33.0105 45.6056C33.0105 45.6056 33.0105 45.6056 33.0105 45.6056L25.0375 45.5683Z" fill="white" stroke="white" stroke-width="0.0434028"/>
</svg>
