<svg width="100" height="75" viewBox="0 0 100 75" fill="none" xmlns="http://www.w3.org/2000/svg">
<path d="M96.875 16.0714H31.25V18.75C31.25 20.2232 29.8438 21.4286 28.125 21.4286H21.875C20.1562 21.4286 18.75 20.2232 18.75 18.75V16.0714H3.125C1.40625 16.0714 0 14.8661 0 13.3929V8.03571C0 6.5625 1.40625 5.35714 3.125 5.35714H18.75V2.67857C18.75 1.20535 20.1562 0 21.875 0H28.125C29.8438 0 31.25 1.20535 31.25 2.67857V5.35714H96.875C98.5938 5.35714 100 6.5625 100 8.03571V13.3929C100 14.8661 98.5938 16.0714 96.875 16.0714ZM96.875 42.8571H81.25V45.5357C81.25 47.0089 79.8438 48.2143 78.125 48.2143H71.875C70.1562 48.2143 68.75 47.0089 68.75 45.5357V42.8571H3.125C1.40625 42.8571 0 41.6518 0 40.1786V34.8214C0 33.3482 1.40625 32.1429 3.125 32.1429H68.75V29.4643C68.75 27.9911 70.1562 26.7857 71.875 26.7857H78.125C79.8438 26.7857 81.25 27.9911 81.25 29.4643V32.1429H96.875C98.5938 32.1429 100 33.3482 100 34.8214V40.1786C100 41.6518 98.5938 42.8571 96.875 42.8571ZM96.875 69.6429H56.25V72.3214C56.25 73.7946 54.8438 75 53.125 75H46.875C45.1562 75 43.75 73.7946 43.75 72.3214V69.6429H3.125C1.40625 69.6429 0 68.4375 0 66.9643V61.6071C0 60.1339 1.40625 58.9286 3.125 58.9286H43.75V56.25C43.75 54.7768 45.1562 53.5714 46.875 53.5714H53.125C54.8438 53.5714 56.25 54.7768 56.25 56.25V58.9286H96.875C98.5938 58.9286 100 60.1339 100 61.6071V66.9643C100 68.4375 98.5938 69.6429 96.875 69.6429Z" fill="white"/>
</svg>
