<svg width="40" height="32" viewBox="0 0 40 32" fill="none" xmlns="http://www.w3.org/2000/svg">
<path d="M16.875 0H23.125C24.1641 0 25 0.66875 25 1.5V12H31.8516C33.2422 12 33.9375 13.3438 32.9531 14.1313L21.0703 23.6437C20.4844 24.1125 19.5234 24.1125 18.9375 23.6437L7.03906 14.1313C6.05469 13.3438 6.75 12 8.14062 12H15V1.5C15 0.66875 15.8359 0 16.875 0ZM40 23.5V30.5C40 31.3312 39.1641 32 38.125 32H1.875C0.835938 32 0 31.3312 0 30.5V23.5C0 22.6688 0.835938 22 1.875 22H13.3359L17.1641 25.0625C18.7344 26.3188 21.2656 26.3188 22.8359 25.0625L26.6641 22H38.125C39.1641 22 40 22.6688 40 23.5ZM30.3125 29C30.3125 28.3125 29.6094 27.75 28.75 27.75C27.8906 27.75 27.1875 28.3125 27.1875 29C27.1875 29.6875 27.8906 30.25 28.75 30.25C29.6094 30.25 30.3125 29.6875 30.3125 29ZM35.3125 29C35.3125 28.3125 34.6094 27.75 33.75 27.75C32.8906 27.75 32.1875 28.3125 32.1875 29C32.1875 29.6875 32.8906 30.25 33.75 30.25C34.6094 30.25 35.3125 29.6875 35.3125 29Z" fill="white"/>
</svg>
