<svg width="38" height="33" viewBox="0 0 38 33" fill="none" xmlns="http://www.w3.org/2000/svg">
<path d="M29.8571 20.625C27.9395 20.625 26.177 21.129 24.7857 21.9717L16.0927 17.8433C16.3501 16.9584 16.3501 16.0415 16.0927 15.1567L24.7857 11.0282C26.177 11.871 27.9395 12.375 29.8571 12.375C34.3543 12.375 38 9.60474 38 6.1875C38 2.77026 34.3543 0 29.8571 0C25.36 0 21.7143 2.77026 21.7143 6.1875C21.7143 6.64886 21.7813 7.09822 21.9073 7.53077L13.2143 11.6592C11.823 10.8165 10.0605 10.3125 8.14286 10.3125C3.64571 10.3125 0 13.0828 0 16.5C0 19.9172 3.64571 22.6875 8.14286 22.6875C10.0605 22.6875 11.823 22.1835 13.2143 21.3408L21.9073 25.4692C21.7788 25.9103 21.7141 26.3607 21.7143 26.8125C21.7143 30.2297 25.36 33 29.8571 33C34.3543 33 38 30.2297 38 26.8125C38 23.3953 34.3543 20.625 29.8571 20.625Z" fill="black"/>
</svg>
