<svg width="84" height="159" viewBox="0 0 84 159" fill="none" xmlns="http://www.w3.org/2000/svg">
<path d="M84 103.167V154.544C84 156.578 81.9938 158.214 79.5 158.214H18C8.0625 158.214 0 151.639 0 143.535V94.6041C0 86.5 8.0625 79.9249 18 79.9249H79.5C81.9938 79.9249 84 81.561 84 83.5947V86.0412C84 87.1881 83.3438 88.2278 82.3313 88.9006C81.5438 91.2554 81.5438 97.9681 82.3313 100.323C83.3438 100.98 84 102.02 84 103.167ZM24 137.724C24 138.229 24.5063 138.642 25.125 138.642H64.875C65.4938 138.642 66 138.229 66 137.724V134.666C66 134.161 65.4938 133.749 64.875 133.749H25.125C24.5063 133.749 24 134.161 24 134.666V137.724ZM24 127.938C24 128.443 24.5063 128.856 25.125 128.856H64.875C65.4938 128.856 66 128.443 66 127.938V124.88C66 124.375 65.4938 123.962 64.875 123.962H25.125C24.5063 123.962 24 124.375 24 124.88V127.938ZM71.5125 89.711H18C14.6812 89.711 12 91.8976 12 94.6041C12 97.2953 14.7 99.4972 18 99.4972H71.5125C66 -119.875 71.1562 92.3258 71.5125 89.711Z" fill="#FBFBFB"/>
</svg>
