<svg width="41" height="48" viewBox="0 0 41 48" fill="none" xmlns="http://www.w3.org/2000/svg">
<path d="M0 43.5C0 45.9844 1.96763 48 4.39286 48H36.6071C39.0324 48 41 45.9844 41 43.5V18H0V43.5ZM29.2857 25.125C29.2857 24.5063 29.7799 24 30.3839 24H34.0446C34.6487 24 35.1429 24.5063 35.1429 25.125V28.875C35.1429 29.4937 34.6487 30 34.0446 30H30.3839C29.7799 30 29.2857 29.4937 29.2857 28.875V25.125ZM29.2857 37.125C29.2857 36.5062 29.7799 36 30.3839 36H34.0446C34.6487 36 35.1429 36.5062 35.1429 37.125V40.875C35.1429 41.4938 34.6487 42 34.0446 42H30.3839C29.7799 42 29.2857 41.4938 29.2857 40.875V37.125ZM17.5714 25.125C17.5714 24.5063 18.0656 24 18.6696 24H22.3304C22.9344 24 23.4286 24.5063 23.4286 25.125V28.875C23.4286 29.4937 22.9344 30 22.3304 30H18.6696C18.0656 30 17.5714 29.4937 17.5714 28.875V25.125ZM17.5714 37.125C17.5714 36.5062 18.0656 36 18.6696 36H22.3304C22.9344 36 23.4286 36.5062 23.4286 37.125V40.875C23.4286 41.4938 22.9344 42 22.3304 42H18.6696C18.0656 42 17.5714 41.4938 17.5714 40.875V37.125ZM5.85714 25.125C5.85714 24.5063 6.35134 24 6.95536 24H10.6161C11.2201 24 11.7143 24.5063 11.7143 25.125V28.875C11.7143 29.4937 11.2201 30 10.6161 30H6.95536C6.35134 30 5.85714 29.4937 5.85714 28.875V25.125ZM5.85714 37.125C5.85714 36.5062 6.35134 36 6.95536 36H10.6161C11.2201 36 11.7143 36.5062 11.7143 37.125V40.875C11.7143 41.4938 11.2201 42 10.6161 42H6.95536C6.35134 42 5.85714 41.4938 5.85714 40.875V37.125ZM36.6071 6H32.2143V1.5C32.2143 0.675 31.5554 0 30.75 0H27.8214C27.0161 0 26.3571 0.675 26.3571 1.5V6H14.6429V1.5C14.6429 0.675 13.9839 0 13.1786 0H10.25C9.44464 0 8.78571 0.675 8.78571 1.5V6H4.39286C1.96763 6 0 8.01562 0 10.5V15H41V10.5C41 8.01562 39.0324 6 36.6071 6Z" fill="white"/>
</svg>
