<svg width="32" height="35" viewBox="0 0 32 35" fill="none" xmlns="http://www.w3.org/2000/svg">
<path d="M0 0V10H9.14286V0H0ZM8.57143 9.375H0.571429V0.625H8.57143V9.375ZM11.4286 0V10H20.5714V0H11.4286ZM20 9.375H12V0.625H20V9.375ZM22.8571 0V10H32V0H22.8571ZM31.4286 9.375H23.4286V0.625H31.4286V9.375ZM0 12.5V22.5H9.14286V12.5H0ZM8.57143 21.875H0.571429V13.125H8.57143V21.875ZM11.4286 12.5V22.5H20.5714V12.5H11.4286ZM20 21.875H12V13.125H20V21.875ZM22.8571 12.5V22.5H32V12.5H22.8571ZM31.4286 21.875H23.4286V13.125H31.4286V21.875ZM0 25V35H9.14286V25H0ZM8.57143 34.375H0.571429V25.625H8.57143V34.375ZM11.4286 25V35H20.5714V25H11.4286ZM20 34.375H12V25.625H20V34.375ZM22.8571 25V35H32V25H22.8571Z" fill="white"/>
</svg>
