<svg width="44" height="44" viewBox="0 0 44 44" fill="none" xmlns="http://www.w3.org/2000/svg">
<path d="M39.9767 18.4094H38.5V18.3333H22V25.6667H32.3611C30.8495 29.9356 26.7877 33 22 33C15.9252 33 11 28.0748 11 22C11 15.9252 15.9252 11 22 11C24.8041 11 27.3552 12.0578 29.2976 13.7857L34.4832 8.60016C31.2088 5.54858 26.829 3.66666 22 3.66666C11.8754 3.66666 3.66666 11.8754 3.66666 22C3.66666 32.1246 11.8754 40.3333 22 40.3333C32.1246 40.3333 40.3333 32.1246 40.3333 22C40.3333 20.7708 40.2068 19.5708 39.9767 18.4094Z" fill="#FFC107"/>
<path d="M5.78049 13.4667L11.8039 17.8842C13.4337 13.849 17.3809 11 22 11C24.8041 11 27.3552 12.0578 29.2976 13.7857L34.4832 8.60016C31.2088 5.54858 26.829 3.66666 22 3.66666C14.9582 3.66666 8.85132 7.64225 5.78049 13.4667Z" fill="#FF3D00"/>
<path d="M22 40.3333C26.7355 40.3333 31.0383 38.5211 34.2916 35.574L28.6174 30.7725C26.7149 32.2194 24.3902 33.0019 22 33C17.2315 33 13.1826 29.9594 11.6572 25.7162L5.67874 30.3224C8.71291 36.2597 14.8747 40.3333 22 40.3333Z" fill="#4CAF50"/>
<path d="M39.9768 18.4094H38.5V18.3333H22V25.6667H32.3611C31.638 27.6984 30.3356 29.4737 28.6147 30.7734L28.6174 30.7716L34.2916 35.5731C33.8901 35.9379 40.3333 31.1667 40.3333 22C40.3333 20.7708 40.2068 19.5708 39.9768 18.4094Z" fill="#1976D2"/>
</svg>
