<svg width="40" height="34" viewBox="0 0 40 34" fill="none" xmlns="http://www.w3.org/2000/svg">
<path d="M36.6667 0H3.33333C1.49306 0 0 1.6317 0 3.64286V30.3571C0 32.3683 1.49306 34 3.33333 34H36.6667C38.5069 34 40 32.3683 40 30.3571V3.64286C40 1.6317 38.5069 0 36.6667 0ZM12.2222 7.28571C14.6736 7.28571 16.6667 9.46384 16.6667 12.1429C16.6667 14.8219 14.6736 17 12.2222 17C9.77083 17 7.77778 14.8219 7.77778 12.1429C7.77778 9.46384 9.77083 7.28571 12.2222 7.28571ZM20 25.2571C20 26.0616 19.3056 26.7143 18.4444 26.7143H6C5.13889 26.7143 4.44444 26.0616 4.44444 25.2571V23.8C4.44444 21.3866 6.53472 19.4286 9.11111 19.4286H9.45833C10.3125 19.8156 11.2431 20.0357 12.2222 20.0357C13.2014 20.0357 14.1389 19.8156 14.9861 19.4286H15.3333C17.9097 19.4286 20 21.3866 20 23.8V25.2571ZM35.5556 21.25C35.5556 21.5839 35.3056 21.8571 35 21.8571H25C24.6944 21.8571 24.4444 21.5839 24.4444 21.25V20.0357C24.4444 19.7018 24.6944 19.4286 25 19.4286H35C35.3056 19.4286 35.5556 19.7018 35.5556 20.0357V21.25ZM35.5556 16.3929C35.5556 16.7268 35.3056 17 35 17H25C24.6944 17 24.4444 16.7268 24.4444 16.3929V15.1786C24.4444 14.8446 24.6944 14.5714 25 14.5714H35C35.3056 14.5714 35.5556 14.8446 35.5556 15.1786V16.3929ZM35.5556 11.5357C35.5556 11.8696 35.3056 12.1429 35 12.1429H25C24.6944 12.1429 24.4444 11.8696 24.4444 11.5357V10.3214C24.4444 9.9875 24.6944 9.71429 25 9.71429H35C35.3056 9.71429 35.5556 9.9875 35.5556 10.3214V11.5357Z" fill="white"/>
</svg>
