<svg width="42" height="48" viewBox="0 0 42 48" fill="none" xmlns="http://www.w3.org/2000/svg">
<path d="M32.4719 6.01332L32.4719 6.03793L32.4965 6.03794L36.9242 6.04108C39.3547 6.04281 41.3259 8.04765 41.3242 10.5178L41.321 14.9915L0.0447589 14.9622L0.0479293 10.4886C0.0496799 8.0184 2.0237 6.01635 4.45422 6.01807L8.88195 6.02121L8.90655 6.02123L8.90657 5.99662L8.90976 1.49838C8.91033 0.68693 9.56431 0.0240434 10.3621 0.0246088L13.3139 0.0267007C14.1117 0.0272661 14.7648 0.691079 14.7642 1.50253L14.761 6.00077L14.761 6.02538L14.7856 6.02539L26.5929 6.03376L26.6175 6.03378L26.6175 6.00917L26.6207 1.51094C26.6212 0.699482 27.2752 0.036595 28.073 0.0371604L31.0248 0.0392524C31.8226 0.0398178 32.4757 0.703631 32.4751 1.51508L32.4719 6.01332ZM4.4245 47.9524C1.99398 47.9507 0.0228009 45.9458 0.0245516 43.4756L0.0425987 18.0102L41.3188 18.0395L41.3008 43.5049C41.299 45.9751 39.325 47.9771 36.8945 47.9754L4.4245 47.9524ZM30.6389 23.9804C30.0161 23.9799 29.507 24.497 29.5065 25.1287L29.5039 28.8773C29.5034 29.509 30.0118 30.0268 30.6346 30.0272L34.3244 30.0298C34.9471 30.0303 35.4563 29.5132 35.4567 28.8815L35.4594 25.1329C35.4598 24.5012 34.9514 23.9834 34.3287 23.983L30.6389 23.9804ZM30.6304 35.9757C30.0076 35.9752 29.4985 36.4923 29.498 37.124L29.4954 40.8725C29.4949 41.5043 30.0033 42.0221 30.6261 42.0225L34.3159 42.0251C34.9386 42.0256 35.4478 41.5085 35.4482 40.8768L35.4509 37.1282C35.4513 36.4965 34.9429 35.9787 34.3202 35.9783L30.6304 35.9757ZM18.8316 23.972C18.2088 23.9716 17.6997 24.4886 17.6993 25.1204L17.6966 28.8689C17.6962 29.5006 18.2046 30.0184 18.8273 30.0189L22.5171 30.0215C23.1399 30.0219 23.649 29.5048 23.6495 28.8731L23.6521 25.1246C23.6526 24.4928 23.1442 23.975 22.5214 23.9746L18.8316 23.972ZM18.8231 35.9673C18.2003 35.9668 17.6912 36.4839 17.6908 37.1156L17.6881 40.8642C17.6877 41.4959 18.1961 42.0137 18.8188 42.0141L22.5086 42.0168C23.1314 42.0172 23.6405 41.5001 23.641 40.8684L23.6436 37.1199C23.6441 36.4881 23.1357 35.9703 22.5129 35.9699L18.8231 35.9673ZM7.02434 23.9636C6.40157 23.9632 5.89244 24.4803 5.89199 25.112L5.88933 28.8605C5.88888 29.4922 6.39729 30.01 7.02006 30.0105L10.7098 30.0131C11.3326 30.0135 11.8417 29.4965 11.8422 28.8647L11.8448 25.1162C11.8453 24.4845 11.3369 23.9667 10.7141 23.9662L7.02434 23.9636ZM7.01584 35.9589C6.39307 35.9585 5.88394 36.4756 5.88349 37.1073L5.88083 40.8558C5.88038 41.4875 6.38879 42.0053 7.01156 42.0058L10.7013 42.0084C11.3241 42.0088 11.8332 41.4918 11.8337 40.86L11.8363 37.1115C11.8368 36.4798 11.3284 35.962 10.7056 35.9615L7.01584 35.9589Z" fill="white" stroke="white" stroke-width="0.0488281"/>
</svg>
