<svg width="40" height="50" viewBox="0 0 40 50" fill="none" xmlns="http://www.w3.org/2000/svg">
<path d="M6.95867 21.6755L6.95252 21.6602L6.93604 21.6602L5.7307 21.6593C4.96031 21.6588 4.32705 20.9739 4.32765 20.1332L4.33423 10.8358C4.33483 9.99514 4.96906 9.31113 5.73945 9.31167L6.94479 9.31253L6.96127 9.31254L6.96744 9.29726C9.17342 3.83491 14.1857 0.0202769 20.0315 0.0244198C25.8773 0.0285627 30.8842 3.85029 33.0825 9.31576L33.0886 9.33105L33.1051 9.33107L34.3104 9.33192C35.0808 9.33247 35.7141 10.0174 35.7135 10.8581L35.7069 20.1554C35.7063 20.9961 35.0721 21.6801 34.3017 21.6796L33.0963 21.6787L33.0799 21.6787L33.0737 21.694C30.8677 27.1564 25.8554 30.971 20.0096 30.9668C14.1638 30.9627 9.1569 27.141 6.95867 21.6755ZM16.7972 16.6326L16.7858 16.6367L16.7822 16.6483L15.7317 20.0582L14.686 16.6469L14.6825 16.6352L14.671 16.6311L11.5211 15.4896L14.6726 14.3526L14.6841 14.3485L14.6877 14.3369L15.7382 10.927L16.7838 14.3383L16.7874 14.35L16.7988 14.3541L19.9488 15.4956L16.7972 16.6326ZM13.5965 9.26841C11.2194 9.26673 9.28521 11.0076 9.28368 13.1637L9.28203 15.488C9.27839 20.6325 13.1238 24.8125 17.8711 24.8159L22.1568 24.8189C26.9042 24.8223 30.7555 20.6477 30.7591 15.5032L30.7607 13.1789C30.7623 11.0228 28.8306 9.27921 26.4535 9.27752L13.5965 9.26841ZM20.0074 34.1148C23.4202 34.1172 26.5926 33.0254 29.2657 31.1587C35.274 31.8536 39.9804 37.3151 39.9756 44.0217L39.975 44.9515C39.9732 47.5064 38.0612 49.5744 35.7105 49.5727L28.5921 49.5677L28.5965 43.3939C28.5977 41.6681 27.3129 40.2694 25.7172 40.2683L14.2888 40.2602C12.6932 40.259 11.4063 41.6559 11.4051 43.3817L11.4007 49.5555L4.28238 49.5505C1.93166 49.5488 0.0226161 47.4781 0.0244267 44.9232L0.0250856 43.9934C0.0298386 37.2868 4.74394 31.8319 10.7532 31.1456C13.4237 33.0161 16.5946 34.1124 20.0074 34.1148ZM22.8812 44.9394C22.8818 44.0987 23.516 43.4147 24.2864 43.4152C25.0568 43.4158 25.6901 44.1007 25.6895 44.9414C25.6889 45.782 25.0547 46.4661 24.2843 46.4655C23.5139 46.465 22.8806 45.7801 22.8812 44.9394ZM14.3099 44.9333C14.3105 44.0926 14.9447 43.4086 15.7151 43.4091C16.4855 43.4097 17.1188 44.0946 17.1182 44.9353L17.1149 49.5596L14.3066 49.5576L14.3099 44.9333Z" fill="#FAFAFA" stroke="white" stroke-width="0.0488281"/>
</svg>
