<svg width="41" height="48" viewBox="0 0 41 48" fill="none" xmlns="http://www.w3.org/2000/svg">
<path d="M41 33.75V2.25C41 1.00312 40.0208 0 38.8036 0H8.78571C3.93527 0 0 4.03125 0 9V39C0 43.9688 3.93527 48 8.78571 48H38.8036C40.0208 48 41 46.9969 41 45.75V44.25C41 43.5469 40.6797 42.9094 40.1855 42.4969C39.8011 41.0531 39.8011 36.9375 40.1855 35.4938C40.6797 35.0906 41 34.4531 41 33.75ZM11.7143 12.5625C11.7143 12.2531 11.9614 12 12.2634 12H31.6652C31.9672 12 32.2143 12.2531 32.2143 12.5625V14.4375C32.2143 14.7469 31.9672 15 31.6652 15H12.2634C11.9614 15 11.7143 14.7469 11.7143 14.4375V12.5625ZM11.7143 18.5625C11.7143 18.2531 11.9614 18 12.2634 18H31.6652C31.9672 18 32.2143 18.2531 32.2143 18.5625V20.4375C32.2143 20.7469 31.9672 21 31.6652 21H12.2634C11.9614 21 11.7143 20.7469 11.7143 20.4375V18.5625ZM34.9049 42H8.78571C7.16585 42 5.85714 40.6594 5.85714 39C5.85714 37.35 7.175 36 8.78571 36H34.9049C34.731 37.6031 34.731 40.3969 34.9049 42Z" fill="#FBFBFB"/>
</svg>
